<svg xmlns="http://www.w3.org/2000/svg" height="48" viewBox="0 -960 960 960" width="48"><path fill="#ffffff" d="M188.001-125.001q-29.5 0-50.096-20.597-20.596-20.596-20.596-50.096v-569.612q0-29.5 20.596-50.096 20.596-20.597 50.096-20.597h377.613v58.384H188.001q-5.385 0-8.847 3.462-3.462 3.462-3.462 8.847v569.612q0 5.385 3.462 8.847 3.462 3.462 8.847 3.462h569.613q5.385 0 8.846-3.462 3.462-3.462 3.462-8.847v-376.613h58.384v376.613q0 29.5-21.096 50.096-21.097 20.597-49.596 20.597H188.001Zm507.307-495.384v-82h-81.615v-58.384h81.615v-81.615h58.383v81.615h81.616v58.384h-81.616v82h-58.383ZM253.309-283.616h441.073L559.306-463.922 440.922-310.693l-83.845-106.152-103.768 133.229Zm-77.617-493.999v594.23V-777.615Z"/></svg>