<svg xmlns="http://www.w3.org/2000/svg" height="48" viewBox="0 -960 960 960" width="48"><path fill="555555" d="M856-706.616v453.232q0 27.782-20.301 48.083T787.616-185H172.384q-27.782 0-48.083-20.301T104-253.384v-453.232q0-27.782 20.301-48.083T172.384-775h615.232q27.782 0 48.083 20.301T856-706.616Zm-708.231 92.308h664.462v-92.308q0-9.23-7.692-16.923-7.693-7.692-16.923-7.692H172.384q-9.23 0-16.923 7.692-7.692 7.693-7.692 16.923v92.308Zm0 101.539v259.385q0 9.23 7.692 16.923 7.693 7.692 16.923 7.692h615.232q9.23 0 16.923-7.692 7.692-7.693 7.692-16.923v-259.385H147.769Zm0 284V-731.231-228.769Z"/></svg>